<?xml version="1.0" encoding="utf-8"?>
<!-- Generator: Adobe Illustrator 16.0.4, SVG Export Plug-In . SVG Version: 6.00 Build 0)  -->
<!DOCTYPE svg PUBLIC "-//W3C//DTD SVG 1.1//EN" "http://www.w3.org/Graphics/SVG/1.1/DTD/svg11.dtd">
<svg version="1.1" id="Layer_1" xmlns="http://www.w3.org/2000/svg" xmlns:xlink="http://www.w3.org/1999/xlink" x="0px" y="0px"
	 width="360px" height="360px" viewBox="0 0 360 360" enable-background="new 0 0 360 360" xml:space="preserve">
<g>
	<polygon fill="#FFFFFF" points="25.769,321.674 215.051,321.674 334.231,321.674 334.231,159.591 334.231,38.326 25.769,38.326 	
		"/>
	<g>
		<path fill="#78B7C3" d="M283.372,207.998v-61.992c0-19.593-15.881-35.472-35.469-35.472H132.626
			c-19.59,0-35.472,15.879-35.472,35.472v61.992H283.372z"/>
		<rect x="71.269" y="214.117" fill="#659AA3" width="224.214" height="11.486"/>
		<path fill="#424143" d="M81.864,205.703c0,4.648-3.769,8.414-8.414,8.414c-4.651,0-8.421-3.766-8.421-8.414
			s3.77-8.418,8.421-8.418C78.096,197.285,81.864,201.055,81.864,205.703z"/>
		<rect x="130.192" y="142.477" fill="#FFD668" width="40.557" height="33.582"/>
		<rect x="209.777" y="142.477" fill="#FFD668" width="40.558" height="33.582"/>
		<path fill="#424143" d="M223.171,232.488c0,18.172-14.734,32.908-32.907,32.908s-32.907-14.736-32.907-32.908
			c0-18.174,14.734-32.908,32.907-32.908S223.171,214.314,223.171,232.488z"/>
		<path fill="#FFFFFF" d="M208.63,232.488c0,10.141-8.223,18.367-18.366,18.367s-18.367-8.227-18.367-18.367
			c0-10.145,8.224-18.371,18.367-18.371S208.63,222.344,208.63,232.488z"/>
	</g>
</g>
</svg>
