<?xml version="1.0" encoding="utf-8"?>
<!-- Generator: Adobe Illustrator 16.0.4, SVG Export Plug-In . SVG Version: 6.00 Build 0)  -->
<!DOCTYPE svg PUBLIC "-//W3C//DTD SVG 1.1//EN" "http://www.w3.org/Graphics/SVG/1.1/DTD/svg11.dtd">
<svg version="1.1" id="Layer_1" xmlns="http://www.w3.org/2000/svg" xmlns:xlink="http://www.w3.org/1999/xlink" x="0px" y="0px"
	 width="360px" height="360px" viewBox="0 0 360 360" enable-background="new 0 0 360 360" xml:space="preserve">
<g>
	<rect x="25.767" y="38.326" fill="#FFFFFF" width="308.465" height="283.348"/>
	<g>
		<path fill="#424143" d="M269.02,85.902H140.198c0,0-28.152,6.193-45.696,9.928c0,0-5.044,3.917,1.869,7.468l151.735,6.314
			l14.189-9.019L269.02,85.902z"/>
		<g>
			<path fill="#343434" d="M164.091,93.048c0,0.901-0.729,1.626-1.63,1.626h-19.515c-0.897,0-1.632-0.725-1.632-1.626l0,0
				c0-0.911,0.734-1.642,1.632-1.642h19.515C163.363,91.406,164.091,92.137,164.091,93.048L164.091,93.048z"/>
		</g>
		<path fill="#424143" d="M124.638,234.756l-62.232-53.767c0,0-9.706-16.555,6.722-16.743c0,0,8.217,2.988,13.818,15.681
			l14.371,17.927c0,0,15.496,15.867,18.858-6.35l2.424-3.918l2.429,0.932c0,0,8.028,4.855,7.843,19.044L124.638,234.756z"/>
		<g>
			<path fill="#343434" d="M81.56,192.684c-0.344,0-0.689-0.118-0.972-0.355l-11.68-9.955c-0.634-0.534-0.707-1.48-0.169-2.106
				c0.534-0.627,1.475-0.701,2.103-0.167l11.686,9.953c0.63,0.54,0.703,1.479,0.169,2.106
				C82.402,192.508,81.982,192.684,81.56,192.684z"/>
		</g>
		<g>
			<g>
				<path fill="#424143" d="M267.939,183.144c-0.146,0.046-0.299,0.076-0.455,0.082l-30.047,1.818
					c-1.1,0.062-2.039-0.769-2.105-1.86c-0.066-1.099,0.758-2.061,1.863-2.101l30.049-1.817c1.096-0.069,2.035,0.766,2.1,1.857
					C269.4,182.063,268.793,182.886,267.939,183.144z"/>
			</g>
			<g>
				<path fill="#424143" d="M270.996,193.27c-0.145,0.042-0.299,0.072-0.453,0.079l-30.053,1.814c-1.092,0.067-2.033-0.765-2.1-1.86
					c-0.066-1.102,0.762-2.061,1.859-2.104l30.049-1.816c1.098-0.059,2.037,0.771,2.1,1.859
					C272.459,192.181,271.854,193.008,270.996,193.27z"/>
			</g>
			<g>
				<path fill="#424143" d="M274.057,203.389c-0.15,0.046-0.297,0.07-0.459,0.079l-30.049,1.814
					c-1.092,0.073-2.039-0.765-2.102-1.854c-0.068-1.104,0.756-2.065,1.857-2.104l30.053-1.814c1.096-0.064,2.039,0.764,2.104,1.855
					C275.518,202.307,274.916,203.125,274.057,203.389z"/>
			</g>
			<g>
				<path fill="#424143" d="M277.109,213.512c-0.146,0.04-0.293,0.073-0.453,0.082l-30.049,1.808
					c-1.1,0.073-2.039-0.764-2.105-1.859c-0.068-1.09,0.764-2.058,1.863-2.097l30.051-1.817c1.094-0.07,2.037,0.769,2.1,1.856
					C278.578,212.425,277.971,213.251,277.109,213.512z"/>
			</g>
			<g>
				<path fill="#424143" d="M280.17,223.625c-0.148,0.049-0.301,0.08-0.461,0.08l-30.047,1.826
					c-1.096,0.066-2.035-0.771-2.102-1.863c-0.066-1.096,0.762-2.066,1.859-2.1l30.049-1.821c1.1-0.073,2.039,0.768,2.107,1.866
					C281.633,222.551,281.029,223.371,280.17,223.625z"/>
			</g>
			<g>
				<path fill="#424143" d="M283.225,233.754c-0.145,0.042-0.297,0.073-0.453,0.079l-30.053,1.82
					c-1.092,0.061-2.033-0.771-2.1-1.863c-0.066-1.104,0.764-2.066,1.863-2.105l30.045-1.818c1.098-0.061,2.039,0.769,2.105,1.861
					C284.691,232.668,284.082,233.493,283.225,233.754z"/>
			</g>
			<g>
				<path fill="#424143" d="M275.631,259.264c-1.053,0.316-2.158-0.278-2.473-1.329c-2.598-8.584,1.893-12.641,4.631-13.585
					c1-0.268,2.166,0.191,2.523,1.232c0.352,1.025-0.188,2.143-1.207,2.516c-0.459,0.173-4.211,1.848-2.146,8.685
					C277.275,257.835,276.684,258.948,275.631,259.264z"/>
			</g>
			<g>
				<path fill="#424143" d="M279.008,248.127c-0.262,0.079-0.541,0.106-0.824,0.064l-20.777-2.67
					c-1.09-0.146-1.857-1.135-1.715-2.229c0.141-1.086,1.135-1.859,2.223-1.717l20.771,2.679c1.094,0.147,1.857,1.136,1.719,2.229
					C280.301,247.281,279.736,247.909,279.008,248.127z"/>
			</g>
			<polygon fill="#424143" points="253.848,175.982 248.264,177.677 244.529,165.316 250.115,163.627 			"/>
		</g>
		<path fill="#D35144" d="M293.328,85.423c10.756,10.753,10.756,28.216,0.002,38.967L154.511,263.205
			c-10.754,10.76-28.211,10.766-38.967,0l0,0c-10.757-10.75-10.757-28.21-0.003-38.967L254.355,85.416
			C265.113,74.663,282.57,74.663,293.328,85.423L293.328,85.423z"/>
		<path fill="#FFFFFF" d="M279.875,98.88c3.738,3.735,3.738,9.795,0,13.536c-3.74,3.744-9.807,3.744-13.545,0
			c-3.738-3.741-3.738-9.801,0-13.536C270.076,95.135,276.135,95.135,279.875,98.88z"/>
	</g>
</g>
</svg>
