<?xml version="1.0" encoding="utf-8"?>
<!-- Generator: Adobe Illustrator 16.0.4, SVG Export Plug-In . SVG Version: 6.00 Build 0)  -->
<!DOCTYPE svg PUBLIC "-//W3C//DTD SVG 1.1//EN" "http://www.w3.org/Graphics/SVG/1.1/DTD/svg11.dtd">
<svg version="1.1" id="Layer_1" xmlns="http://www.w3.org/2000/svg" xmlns:xlink="http://www.w3.org/1999/xlink" x="0px" y="0px"
	 width="360px" height="360px" viewBox="0 0 360 360" enable-background="new 0 0 360 360" xml:space="preserve">
<g>
	<rect x="25.77" y="38.326" fill="#FFFFFF" width="308.461" height="283.348"/>
	<g>
		<path fill="#3C3C3B" d="M192.809,144.792V81.083c0-2.695-2.188-4.879-4.882-4.879h-3.42c-2.695,0-4.883,2.185-4.883,4.879v63.709
			H192.809z"/>
		<path fill="#FFC42C" d="M278.993,150.861H93.437c-0.553,4.606-2.726,12.213-10.269,20.876
			c-1.378,1.539-17.554,20.367-8.084,45.312l0.109,0.262c0.397,0.864,10.093,21.334,39.577,28.034
			c1.948,0.537,36.558,9.907,71.444,9.907c34.883,0,69.493-9.367,71.443-9.907c29.487-6.7,39.183-27.17,39.58-28.034l0.109-0.262
			c9.465-24.945-6.706-43.773-8.086-45.312C281.712,163.068,279.542,155.455,278.993,150.861z"/>
		<rect x="94.271" y="159.284" fill="#C4982D" width="31.244" height="10.942"/>
		<rect x="132.349" y="159.284" fill="#C4982D" width="31.244" height="10.942"/>
		<rect x="170.431" y="159.284" fill="#C4982D" width="31.244" height="10.942"/>
		<rect x="208.511" y="159.284" fill="#C4982D" width="31.245" height="10.942"/>
		<rect x="246.589" y="159.284" fill="#C4982D" width="31.245" height="10.942"/>
		<rect x="87.598" y="178.431" fill="#C4982D" width="19.037" height="10.942"/>
		<rect x="113.469" y="178.431" fill="#C4982D" width="31.247" height="10.942"/>
		<rect x="151.55" y="178.431" fill="#C4982D" width="31.248" height="10.942"/>
		<rect x="189.632" y="178.431" fill="#C4982D" width="31.241" height="10.942"/>
		<rect x="227.712" y="178.431" fill="#C4982D" width="31.248" height="10.942"/>
		<rect x="265.794" y="178.431" fill="#C4982D" width="18.716" height="10.942"/>
		<rect x="94.271" y="197.584" fill="#C4982D" width="31.244" height="10.945"/>
		<rect x="132.349" y="197.584" fill="#C4982D" width="31.244" height="10.945"/>
		<rect x="79.653" y="197.584" fill="#C4982D" width="7.78" height="10.945"/>
		<rect x="170.431" y="197.584" fill="#C4982D" width="31.244" height="10.945"/>
		<rect x="208.511" y="197.584" fill="#C4982D" width="31.245" height="10.945"/>
		<rect x="246.589" y="197.584" fill="#C4982D" width="31.245" height="10.945"/>
		<rect x="284.67" y="197.584" fill="#C4982D" width="8.159" height="10.945"/>
		<rect x="87.434" y="216.736" fill="#C4982D" width="19.201" height="10.945"/>
		<rect x="113.469" y="216.736" fill="#C4982D" width="31.247" height="10.945"/>
		<rect x="151.55" y="216.736" fill="#C4982D" width="31.248" height="10.945"/>
		<rect x="189.632" y="216.736" fill="#C4982D" width="31.241" height="10.945"/>
		<rect x="227.712" y="216.736" fill="#C4982D" width="31.248" height="10.945"/>
		<rect x="265.794" y="216.736" fill="#C4982D" width="18.716" height="10.945"/>
		<polygon fill="#C4982D" points="125.515,243.973 111.254,241.117 111.254,235.887 125.515,235.887 		"/>
		<polygon fill="#C4982D" points="163.593,246.831 132.349,245.405 132.349,235.887 163.593,235.887 		"/>
		<rect x="170.431" y="235.887" fill="#C4982D" width="31.244" height="10.944"/>
		<polygon fill="#C4982D" points="239.756,245.405 208.511,246.831 208.511,235.887 239.756,235.887 		"/>
		<polygon fill="#C4982D" points="258.96,241.117 246.589,243.973 246.589,235.887 258.96,235.887 		"/>
	</g>
</g>
</svg>
