<?xml version="1.0" encoding="utf-8"?>
<!-- Generator: Adobe Illustrator 16.0.4, SVG Export Plug-In . SVG Version: 6.00 Build 0)  -->
<!DOCTYPE svg PUBLIC "-//W3C//DTD SVG 1.1//EN" "http://www.w3.org/Graphics/SVG/1.1/DTD/svg11.dtd">
<svg version="1.1" id="Layer_1" xmlns="http://www.w3.org/2000/svg" xmlns:xlink="http://www.w3.org/1999/xlink" x="0px" y="0px"
	 width="360px" height="360px" viewBox="0 0 360 360" enable-background="new 0 0 360 360" xml:space="preserve">
<g>
	<rect x="25.769" y="38.325" fill="#FFFFFF" width="308.463" height="283.35"/>
	<g>
		<path fill="#374F59" d="M196.329,227.958c31.424,0,56.9-25.477,56.9-56.903H139.427
			C139.427,202.481,164.901,227.958,196.329,227.958z"/>
		<g>
			<path fill="#374F59" d="M130.578,91.038c-19.739,24.451-15.918,60.278,8.535,80.017l71.483-88.556
				C186.144,62.761,150.319,66.581,130.578,91.038z"/>
			<g>
				<path fill="#374F59" d="M125.24,104.456l-5.067-4.09c-2.795-2.258-3.234-6.366-0.978-9.164l9.146-11.33
					c2.257-2.792,6.365-3.229,9.163-0.974l5.068,4.093l3.367-4.179l-5.066-4.087c-5.099-4.117-12.594-3.316-16.708,1.781
					l-9.146,11.327c-4.114,5.098-3.313,12.593,1.784,16.707l5.067,4.088L125.24,104.456z"/>
			</g>
		</g>
		<g>
			<polygon fill="#374F59" points="268.134,290.129 217.643,213.316 203.554,222.578 247.959,290.129 			"/>
		</g>
		<path fill="#374F59" d="M163.37,254.533l19.611-32.204l-14.402-8.767l-19.641,32.255
			C154.877,246.638,160.029,249.881,163.37,254.533z"/>
		<path fill="#D35144" d="M148.938,245.817c-0.965-0.13-1.938-0.225-2.938-0.225c-11.812,0-21.389,9.577-21.389,21.39
			c0,11.816,9.576,21.393,21.389,21.393c11.816,0,21.393-9.576,21.393-21.393c0-4.651-1.502-8.939-4.023-12.449
			C160.029,249.881,154.877,246.638,148.938,245.817z M146.001,279.241c-6.769,0-12.258-5.485-12.258-12.259
			c0-6.77,5.489-12.259,12.258-12.259c6.77,0,12.26,5.489,12.26,12.259C158.261,273.756,152.771,279.241,146.001,279.241z"/>
	</g>
</g>
</svg>
