<?xml version="1.0" encoding="utf-8"?>
<!-- Generator: Adobe Illustrator 16.0.4, SVG Export Plug-In . SVG Version: 6.00 Build 0)  -->
<!DOCTYPE svg PUBLIC "-//W3C//DTD SVG 1.1//EN" "http://www.w3.org/Graphics/SVG/1.1/DTD/svg11.dtd">
<svg version="1.1" id="Layer_1" xmlns="http://www.w3.org/2000/svg" xmlns:xlink="http://www.w3.org/1999/xlink" x="0px" y="0px"
	 width="360px" height="360px" viewBox="0 0 360 360" enable-background="new 0 0 360 360" xml:space="preserve">
<g>
	<polygon fill="#FFFFFF" points="25.77,321.675 282.294,321.675 334.23,321.675 334.23,220.43 334.23,38.325 25.77,38.325 	"/>
	<g>
		<path fill="#8B5F3D" d="M292.441,274.894c0,0,15.882-8.229,3.059-25.39c0,0-19.007-26.037-47.621-45.696
			c0,0-44.718-32.626-64.187-59.799c0,0-6.945-22.211-30.51-34.261l-21.514,20.615c0,0,35.69,44.669,74.685,73.02
			c0,0,48.444,36.497,55.774,65.375C262.128,268.758,269.608,291.771,292.441,274.894z"/>
		<path fill="#999A9E" d="M105.009,188.424c0,0-45.97-7.096-45.506-44.418l25.792-14.137l29.709,28.684L105.009,188.424z"/>
		<path fill="#424143" d="M140.838,85.058l20.884,20.178l-31.333,31.455c0,0-14.268,1.969-14.839,20.227l-0.546,1.636
			l-29.709-28.684l16-8.772L140.838,85.058z"/>
	</g>
</g>
</svg>
