<?xml version="1.0" encoding="utf-8"?>
<!-- Generator: Adobe Illustrator 16.0.4, SVG Export Plug-In . SVG Version: 6.00 Build 0)  -->
<!DOCTYPE svg PUBLIC "-//W3C//DTD SVG 1.1//EN" "http://www.w3.org/Graphics/SVG/1.1/DTD/svg11.dtd">
<svg version="1.1" id="Layer_1" xmlns="http://www.w3.org/2000/svg" xmlns:xlink="http://www.w3.org/1999/xlink" x="0px" y="0px"
	 width="360px" height="360px" viewBox="0 0 360 360" enable-background="new 0 0 360 360" xml:space="preserve">
<g>
	<rect x="25.769" y="38.326" fill="#FFFFFF" width="308.463" height="283.348"/>
	<path fill="#D35144" d="M142.585,241.084l-0.055-0.867h-9.092c-4.436,0-8.028,3.593-8.028,8.022v36.122h54.743v-43.277H142.585z"/>
	<path fill="#C24B3F" d="M180.154,241.084v43.277h54.976v-36.122c0-4.43-3.596-8.022-8.031-8.022h-9.092l-0.053,0.867H180.154z"/>
	<path fill="#C24B3F" d="M233.704,303.429c4.02,0,7.279-3.253,7.279-7.272c0-4.021-3.26-7.28-7.279-7.28h-53.55v14.553H233.704z"/>
	<path fill="#D35144" d="M119.557,296.156c0,4.02,3.256,7.272,7.273,7.272h53.323v-14.553h-53.323
		C122.813,288.876,119.557,292.135,119.557,296.156z"/>
	<polygon fill="#FFD668" points="136.814,146.75 142.531,240.217 142.585,241.084 180.154,241.084 180.154,240.217 180.154,146.75 	
		"/>
	<polygon fill="#EBC660" points="180.269,146.75 180.154,146.75 180.154,240.217 180.154,241.084 217.954,241.084 218.007,240.217 
		223.718,146.75 	"/>
	<path fill="#D35144" d="M139.126,128.021c0,0-10.372,8.694-23.42,12.708c0,0-5.686,3.344,0,6.021h21.107h43.34v-6.021v-12.708
		H139.126z"/>
	<path fill="#C24B3F" d="M244.831,140.729c-13.049-4.014-23.42-12.708-23.42-12.708h-41.142h-0.115v12.708v6.021h0.115h43.449
		h21.113C250.517,144.073,244.831,140.729,244.831,140.729z"/>
	<path fill="#C24B3F" d="M180.269,106.45c2.643,0,4.786,2.137,4.786,4.791v8.421h13.426v-8.421c0-2.654,2.143-4.791,4.785-4.791
		c2.646,0,4.788,2.137,4.788,4.791v8.421h11.543v-8.736c0-6.427-5.217-11.64-11.646-11.64h-27.796v7.177
		C180.193,106.46,180.23,106.45,180.269,106.45z"/>
	<path fill="#D35144" d="M180.154,106.463v-7.177H151.77c-6.431,0-11.644,5.213-11.644,11.64v8.736h12.359v-8.421
		c0-2.654,2.146-4.791,4.788-4.791c2.644,0,4.785,2.137,4.785,4.791v8.421h13.425v-8.421
		C175.484,108.626,177.565,106.523,180.154,106.463z"/>
	<path fill="#A13D32" d="M185.055,111.241c0-2.654-2.143-4.791-4.786-4.791c-0.039,0-0.076,0.01-0.115,0.013v13.199h4.901V111.241z"
		/>
	<path fill="#AD4236" d="M175.484,111.241v8.421h4.67v-13.199C177.565,106.523,175.484,108.626,175.484,111.241z"/>
	<path fill="#AD4236" d="M157.274,106.45c-2.643,0-4.788,2.137-4.788,4.791v8.421h9.573v-8.421
		C162.059,108.587,159.917,106.45,157.274,106.45z"/>
	<path fill="#A13D32" d="M203.266,106.45c-2.643,0-4.785,2.137-4.785,4.791v8.421h9.573v-8.421
		C208.054,108.587,205.912,106.45,203.266,106.45z"/>
	<polygon fill="#424143" points="145.744,57.943 144.658,58.483 125.923,80.892 125.572,81.859 125.572,113.06 127.085,114.564 
		134.447,114.564 134.447,111.548 128.597,111.548 128.597,82.413 146.554,60.923 180.154,59.285 180.154,56.269 	"/>
	<polygon fill="#383738" points="213.989,60.927 231.944,82.413 231.944,111.548 226.097,111.548 226.097,114.564 233.458,114.564 
		234.966,113.06 234.966,81.859 234.616,80.892 215.882,58.483 214.796,57.943 180.196,56.269 180.154,56.269 180.154,59.285 
		180.196,59.285 	"/>
</g>
</svg>
