<?xml version="1.0" encoding="utf-8"?>
<!-- Generator: Adobe Illustrator 16.0.4, SVG Export Plug-In . SVG Version: 6.00 Build 0)  -->
<!DOCTYPE svg PUBLIC "-//W3C//DTD SVG 1.1//EN" "http://www.w3.org/Graphics/SVG/1.1/DTD/svg11.dtd">
<svg version="1.1" xmlns="http://www.w3.org/2000/svg" xmlns:xlink="http://www.w3.org/1999/xlink" x="0px" y="0px" width="700px"
	 height="350px" viewBox="0 0 700 350" enable-background="new 0 0 700 350" xml:space="preserve">
<g id="Layer_2">
	<rect fill="#BFD5B7" width="700" height="350"/>
</g>
<g id="Layer_3">
	<g>
		<g>
			
				<g id="L1_9_2_" transform="matrix(-0.09013445675373077 1.1038287395634192e-17 -1.1038287395634192e-17 -0.09013445675373077 125.35279398411512 285.37446608634684)">
				<path fill="#B7C9AF" d="M-5717.861,967.987c-39.156,0-71.617,26.848-79.439,62.656h-189.085
					c-8.949-35.808-41.388-62.656-79.417-62.656c-44.769,0-81.692,36.924-81.692,81.682c0,31.312,17.92,59.287,44.768,72.711v88.388
					c0,114.11,98.443,205.857,212.574,205.857c114.11,0,212.553-91.747,212.553-205.857v-88.388
					c25.743-13.424,43.642-41.399,43.642-72.711C-5635.086,1004.911-5672.01,967.987-5717.861,967.987z M-5998.693,1136.919
					c0-12.297,10.076-23.489,23.511-23.489c13.413,0,23.489,10.065,23.489,23.489s-10.076,23.5-23.489,23.5
					C-5988.617,1160.419-5998.693,1150.343-5998.693,1136.919z M-5892.406,1376.352c-42.516,0-78.312-45.874-78.312-101.812
					c0-55.939,34.692-101.812,78.312-101.812c43.642,0,78.312,45.874,78.312,101.812
					C-5814.095,1330.479-5848.765,1376.352-5892.406,1376.352z M-5808.482,1160.419c-13.435,0-23.511-10.076-23.511-23.5
					c0-12.297,10.076-23.489,23.511-23.489c12.309,0,23.489,10.065,23.489,23.489S-5795.069,1160.419-5808.482,1160.419z"/>
				<path fill="#B7C9AF" d="M-5932.668,1232.025c-6.718,0-13.435,3.359-15.667,8.938c-2.253,6.717-1.126,13.435,3.337,17.92
					l40.283,40.272c6.718,6.707,17.898,6.707,24.616,0l40.283-40.272c4.464-4.486,6.695-11.203,3.358-17.92
					c-2.254-6.707-8.949-8.938-15.667-8.938H-5932.668z"/>
			</g>
		</g>
		<g>
			
				<g id="L1_9_1_" transform="matrix(-0.09013445675373077 1.1038287395634192e-17 -1.1038287395634192e-17 -0.09013445675373077 125.35279398411512 285.37446608634684)">
				<path fill="#B7C9AF" d="M1096.834,967.987c-39.156,0-71.6,26.848-79.434,62.656H828.327
					c-8.955-35.808-41.393-62.656-79.434-62.656c-44.758,0-81.676,36.924-81.676,81.682c0,31.312,17.904,59.287,44.758,72.711
					v88.388c0,114.11,98.448,205.857,212.569,205.857c114.115,0,212.569-91.747,212.569-205.857v-88.388
					c25.732-13.424,43.631-41.399,43.631-72.711C1179.627,1004.911,1142.708,967.987,1096.834,967.987z M816.019,1136.919
					c0-12.297,10.065-23.489,23.495-23.489c13.424,0,23.495,10.065,23.495,23.489s-10.071,23.5-23.495,23.5
					C826.084,1160.419,816.019,1150.343,816.019,1136.919z M922.3,1376.352c-42.509,0-78.312-45.874-78.312-101.812
					c0-55.939,34.681-101.812,78.312-101.812c43.642,0,78.318,45.874,78.318,101.812
					C1000.618,1330.479,965.942,1376.352,922.3,1376.352z M1006.214,1160.419c-13.424,0-23.495-10.076-23.495-23.5
					c0-12.297,10.071-23.489,23.495-23.489c12.308,0,23.495,10.065,23.495,23.489S1019.643,1160.419,1006.214,1160.419z"/>
				<path fill="#B7C9AF" d="M882.028,1232.025c-6.712,0-13.424,3.359-15.667,8.938c-2.232,6.717-1.116,13.435,3.359,17.92
					l40.277,40.272c6.717,6.707,17.899,6.707,24.611,0l40.277-40.272c4.475-4.486,6.712-11.203,3.359-17.92
					c-2.243-6.707-8.955-8.938-15.667-8.938H882.028z"/>
			</g>
		</g>
		<g>
			
				<g id="L1_9_3_" transform="matrix(-0.09013445675373077 1.1038287395634192e-17 -1.1038287395634192e-17 -0.09013445675373077 125.35279398411512 285.37446608634684)">
				<path fill="#B7C9AF" d="M-2323.16,967.987c-39.156,0-71.606,26.848-79.439,62.656h-189.079
					c-8.949-35.808-41.388-62.656-79.417-62.656c-44.768,0-81.693,36.924-81.693,81.682c0,31.312,17.92,59.287,44.769,72.711v88.388
					c0,114.11,98.443,205.857,212.569,205.857c114.11,0,212.569-91.747,212.569-205.857v-88.388
					c25.727-13.424,43.631-41.399,43.631-72.711C-2240.368,1004.911-2277.292,967.987-2323.16,967.987z M-2603.987,1136.919
					c0-12.297,10.076-23.489,23.511-23.489c13.413,0,23.489,10.065,23.489,23.489s-10.076,23.5-23.489,23.5
					C-2593.911,1160.419-2603.987,1150.343-2603.987,1136.919z M-2497.684,1376.352c-42.531,0-78.328-45.874-78.328-101.812
					c0-55.939,34.692-101.812,78.328-101.812c43.631,0,78.301,45.874,78.301,101.812
					C-2419.382,1330.479-2454.053,1376.352-2497.684,1376.352z M-2413.781,1160.419c-13.424,0-23.5-10.076-23.5-23.5
					c0-12.297,10.076-23.489,23.5-23.489c12.308,0,23.489,10.065,23.489,23.489S-2400.357,1160.419-2413.781,1160.419z"/>
				<path fill="#B7C9AF" d="M-2537.961,1232.025c-6.718,0-13.435,3.359-15.667,8.938c-2.254,6.717-1.127,13.435,3.337,17.92
					l40.283,40.272c6.739,6.707,17.904,6.707,24.622,0l40.272-40.272c4.475-4.486,6.707-11.203,3.37-17.92
					c-2.243-6.707-8.96-8.938-15.667-8.938H-2537.961z"/>
			</g>
		</g>
		<g>
			<g id="L1_10_2_" transform="matrix(1.304574728012085 0 0 1.304574728012085 240.99999757143996 152)">
				<path fill="#B7C9AF" d="M190.528-27.838c-0.606-0.303-1.096-0.811-1.362-1.472c-0.434-1.082-0.166-2.3,0.677-3.105l4.878-4.644
					c-0.295-0.274-0.534-0.611-0.695-1c-0.44-1.063-0.199-2.275,0.614-3.086l5.436-5.515l-5.153-5.154
					c-0.397-0.397-1.04-0.397-1.436,0l-5.155,5.154c-0.29,0.29-0.377,0.742-0.22,1.122c0.157,0.379,0.528,0.642,0.939,0.642h0.901
					c0.109,0,0.21,0.052,0.252,0.155c0.042,0.103,0.016,0.214-0.064,0.29l-6.354,6.049c-0.301,0.287-0.397,0.718-0.243,1.104
					c0.154,0.386,0.528,0.63,0.943,0.63h1.831c0.109,0,0.207,0.073,0.25,0.174c0.042,0.102,0.021,0.222-0.057,0.3l-7.619,7.737
					c-0.287,0.292-0.37,0.717-0.214,1.096c0.159,0.377,0.528,0.613,0.939,0.613h9.829L190.528-27.838z"/>
				<path fill="#B7C9AF" d="M218.362-20.586l-8.085-8.208c-0.082-0.084-0.105-0.207-0.06-0.314c0.045-0.107,0.15-0.178,0.266-0.178
					h1.943c0.442,0,0.835-0.268,1.002-0.677c0.163-0.409,0.061-0.877-0.259-1.181l-6.745-6.422c-0.085-0.082-0.112-0.2-0.067-0.311
					c0.045-0.11,0.151-0.176,0.268-0.176h0.957c0.436,0,0.826-0.269,0.996-0.671c0.166-0.403,0.073-0.869-0.235-1.178l-5.468-5.47
					c-0.21-0.21-0.487-0.316-0.762-0.316c-0.274,0-0.552,0.105-0.761,0.314l-5.468,5.469c-0.308,0.308-0.4,0.777-0.235,1.18
					c0.166,0.403,0.56,0.671,0.997,0.671h0.954c0.118,0,0.225,0.066,0.268,0.176c0.046,0.11,0.019,0.232-0.067,0.313l-6.745,6.421
					c-0.319,0.305-0.421,0.771-0.256,1.18c0.163,0.41,0.558,0.676,1,0.676h1.943c0.117,0,0.222,0.07,0.266,0.178
					c0.045,0.108,0.021,0.232-0.06,0.314l-8.086,8.208c-0.304,0.31-0.392,0.772-0.226,1.172c0.168,0.401,0.56,0.661,0.994,0.661
					h10.892c0.594,0,1.044,0.484,1.044,1.079v4.868c0,0.595,0.517,1.052,1.111,1.052h4.869c0.596,0,1.096-0.457,1.096-1.052v-4.868
					c0-0.595,0.464-1.079,1.06-1.079h10.893c0.434,0,0.825-0.261,0.994-0.661C218.754-19.814,218.667-20.276,218.362-20.586z"/>
			</g>
		</g>
		<g>
			<g id="L1_10_1_" transform="matrix(1.304574728012085 0 0 1.304574728012085 240.99999757143996 152)">
				<path fill="#B7C9AF" d="M-44.887-27.838c-0.607-0.303-1.097-0.811-1.362-1.472c-0.434-1.082-0.168-2.3,0.676-3.105l4.877-4.644
					c-0.295-0.274-0.534-0.611-0.695-1c-0.44-1.063-0.198-2.275,0.615-3.086l5.436-5.515l-5.154-5.154
					c-0.397-0.397-1.041-0.397-1.435,0l-5.155,5.154c-0.29,0.29-0.377,0.742-0.219,1.122c0.157,0.379,0.528,0.642,0.938,0.642h0.901
					c0.11,0,0.21,0.052,0.252,0.155c0.042,0.103,0.016,0.214-0.064,0.29l-6.355,6.049c-0.301,0.287-0.396,0.718-0.242,1.104
					c0.154,0.386,0.528,0.63,0.942,0.63h1.831c0.11,0,0.208,0.073,0.251,0.174c0.042,0.102,0.021,0.222-0.057,0.3l-7.618,7.737
					c-0.288,0.292-0.371,0.717-0.214,1.096c0.159,0.377,0.528,0.613,0.938,0.613h9.829L-44.887-27.838z"/>
				<path fill="#B7C9AF" d="M-17.055-20.586l-8.085-8.208c-0.081-0.084-0.104-0.207-0.059-0.314
					c0.045-0.107,0.149-0.178,0.266-0.178h1.943c0.442,0,0.837-0.268,1.002-0.677c0.163-0.409,0.061-0.877-0.259-1.181l-6.744-6.422
					c-0.086-0.082-0.113-0.2-0.068-0.311c0.044-0.11,0.15-0.176,0.268-0.176h0.957c0.435,0,0.828-0.269,0.996-0.671
					c0.166-0.403,0.074-0.869-0.234-1.178l-5.468-5.47c-0.209-0.21-0.486-0.316-0.762-0.316c-0.275,0-0.552,0.105-0.761,0.314
					l-5.468,5.469c-0.309,0.308-0.4,0.777-0.234,1.18c0.166,0.403,0.56,0.671,0.996,0.671h0.955c0.118,0,0.225,0.066,0.268,0.176
					c0.045,0.11,0.018,0.232-0.068,0.313l-6.745,6.421c-0.318,0.305-0.421,0.771-0.256,1.18c0.164,0.41,0.56,0.676,1,0.676h1.944
					c0.116,0,0.222,0.07,0.266,0.178c0.045,0.108,0.021,0.232-0.061,0.314l-8.085,8.208c-0.304,0.31-0.393,0.772-0.226,1.172
					c0.168,0.401,0.56,0.661,0.994,0.661h10.891c0.595,0,1.043,0.484,1.043,1.079v4.868c0,0.595,0.517,1.052,1.112,1.052h4.869
					c0.595,0,1.095-0.457,1.095-1.052v-4.868c0-0.595,0.464-1.079,1.06-1.079h10.892c0.435,0,0.825-0.261,0.995-0.661
					C-16.661-19.814-16.75-20.276-17.055-20.586z"/>
			</g>
		</g>
		<g>
			<g id="L1_11_2_" transform="matrix(1.2919617891311646 0 0 1.2919617891311646 240.0000015968153 -11)">
				<path fill="#B7C9AF" d="M216.271,236.237l-8.718-3.624l8.724-3.601c1.344-0.557,1.985-2.096,1.433-3.44
					c-0.558-1.342-2.1-1.985-3.441-1.43l-13.597,5.612l-13.582-5.646c-1.341-0.558-2.886,0.079-3.445,1.422
					c-0.556,1.342,0.08,2.884,1.423,3.441l8.72,3.627l-8.729,3.601c-1.344,0.556-1.985,2.096-1.43,3.44
					c0.422,1.015,1.401,1.629,2.435,1.629c0.336,0,0.676-0.064,1.004-0.201l13.598-5.612l13.583,5.646
					c0.331,0.137,0.673,0.202,1.008,0.202c1.034,0,2.012-0.61,2.432-1.625C218.248,238.337,217.614,236.794,216.271,236.237z"/>
				<path fill="#B7C9AF" d="M200.67,226.401c6.154,0,11.142-4.99,11.142-11.142c0-1.544-0.703-3.583-1.754-5.768
					c-0.138-0.286-0.457-0.443-0.769-0.374c-0.31,0.068-0.535,0.341-0.541,0.66c-0.042,2.312-0.667,3.885-1.435,4.948
					c-0.091,0.125-0.257,0.163-0.393,0.091c-0.133-0.073-0.197-0.234-0.141-0.379c0.54-1.421,0.283-3.534-2.47-6.506
					c-2.576-2.784-3.211-4.97-3.092-6.567c0.024-0.317-0.153-0.616-0.444-0.746c-0.289-0.131-0.63-0.063-0.851,0.166
					c-2.63,2.732-5.87,7.201-4.93,11.728c0.039,0.191-0.062,0.383-0.245,0.455c-0.181,0.073-0.389,0.005-0.493-0.162
					c-0.67-1.079-1.28-2.692-1.055-4.822c0.036-0.346-0.175-0.671-0.508-0.776c-0.331-0.105-0.692,0.039-0.86,0.345
					c-1.211,2.18-2.301,4.917-2.301,7.708C189.528,221.412,194.515,226.401,200.67,226.401z"/>
			</g>
		</g>
		<g>
			<g id="L1_11_1_" transform="matrix(1.2919617891311646 0 0 1.2919617891311646 240.0000015968153 -11)">
				<path fill="#B7C9AF" d="M-21.444,236.237l-8.718-3.624l8.725-3.601c1.344-0.557,1.985-2.096,1.432-3.44
					c-0.557-1.342-2.099-1.985-3.441-1.43l-13.596,5.612l-13.583-5.646c-1.341-0.558-2.885,0.079-3.444,1.422
					c-0.557,1.342,0.079,2.884,1.422,3.441l8.72,3.627l-8.729,3.601c-1.344,0.556-1.985,2.096-1.429,3.44
					c0.42,1.015,1.401,1.629,2.436,1.629c0.334,0,0.675-0.064,1.003-0.201l13.598-5.612l13.583,5.646
					c0.331,0.137,0.673,0.202,1.009,0.202c1.033,0,2.012-0.61,2.432-1.625C-19.466,238.337-20.101,236.794-21.444,236.237z"/>
				<path fill="#B7C9AF" d="M-37.046,226.401c6.155,0,11.142-4.99,11.142-11.142c0-1.544-0.703-3.583-1.754-5.768
					c-0.137-0.286-0.456-0.443-0.768-0.374c-0.311,0.068-0.536,0.341-0.541,0.66c-0.044,2.312-0.667,3.885-1.435,4.948
					c-0.091,0.125-0.258,0.163-0.394,0.091c-0.133-0.073-0.196-0.234-0.139-0.379c0.539-1.421,0.282-3.534-2.47-6.506
					c-2.577-2.784-3.212-4.97-3.092-6.567c0.025-0.317-0.153-0.616-0.444-0.746c-0.29-0.131-0.631-0.063-0.852,0.166
					c-2.631,2.732-5.869,7.201-4.93,11.728c0.039,0.191-0.062,0.383-0.245,0.455c-0.181,0.073-0.388,0.005-0.492-0.162
					c-0.67-1.079-1.281-2.692-1.056-4.822c0.036-0.346-0.175-0.671-0.508-0.776c-0.332-0.105-0.693,0.039-0.861,0.345
					c-1.211,2.18-2.3,4.917-2.3,7.708C-48.186,221.412-43.199,226.401-37.046,226.401z"/>
			</g>
		</g>
		<g>
			<path id="L1_13_5_" fill="#B7C9AF" d="M634.738,322.365c0.113,0.113,24.076,30.292,24.076,30.292
				c0.791,1.018,2.148,1.13,3.164,0.34c3.504-2.826,5.766-6.782,6.217-11.303c0.453-4.522-0.791-8.931-3.617-12.435l-3.277-4.182
				h10.965c5.875,0,10.736-4.747,10.736-10.737c0-5.991-4.748-10.738-10.736-10.738h-30.293c-5.877,0-10.736,4.86-10.736,10.738
				C631.236,317.618,632.93,320.104,634.738,322.365z M673.168,309.933c2.488,0,4.635,2.034,4.635,4.634
				c0,2.486-2.035,4.635-4.635,4.635s-4.633-2.035-4.633-4.635S670.682,309.933,673.168,309.933z M661.188,332.086
				c2.035,2.601,2.939,5.877,2.6,9.155c-0.338,2.487-1.355,4.86-2.938,6.782l-18.197-22.832h12.996L661.188,332.086z
				 M641.182,309.933c2.486,0,4.633,2.034,4.633,4.634c0,2.486-2.033,4.635-4.633,4.635c-2.486,0-4.635-2.035-4.635-4.635
				S638.695,309.933,641.182,309.933z"/>
		</g>
		<g>
			<path id="L1_13_6_" fill="#B7C9AF" d="M634.738,15.248c0.113,0.113,24.076,30.292,24.076,30.292
				c0.791,1.017,2.148,1.13,3.164,0.339c3.504-2.826,5.766-6.782,6.217-11.303c0.453-4.522-0.791-8.93-3.617-12.434l-3.277-4.182
				h10.965c5.875,0,10.736-4.747,10.736-10.738s-4.748-10.738-10.736-10.738h-30.293c-5.877,0-10.736,4.86-10.736,10.738
				C631.236,10.5,632.93,12.987,634.738,15.248z M673.168,2.814c2.488,0,4.635,2.034,4.635,4.634c0,2.486-2.035,4.634-4.635,4.634
				s-4.633-2.035-4.633-4.634C668.535,4.849,670.682,2.814,673.168,2.814z M661.188,24.968c2.035,2.6,2.939,5.877,2.6,9.155
				c-0.338,2.487-1.355,4.86-2.938,6.782l-18.197-22.832h12.996L661.188,24.968z M641.182,2.814c2.486,0,4.633,2.034,4.633,4.634
				c0,2.486-2.033,4.634-4.633,4.634c-2.486,0-4.635-2.035-4.635-4.634C636.547,4.849,638.695,2.814,641.182,2.814z"/>
		</g>
		<g>
			<path id="L1_13_4_" fill="#B7C9AF" d="M327.621,322.365c0.113,0.113,24.077,30.292,24.077,30.292
				c0.789,1.018,2.146,1.13,3.162,0.34c3.506-2.826,5.766-6.782,6.217-11.303c0.453-4.522-0.791-8.931-3.617-12.435l-3.277-4.182
				h10.965c5.877,0,10.736-4.747,10.736-10.737c0-5.991-4.746-10.738-10.736-10.738h-30.292c-5.878,0-10.738,4.86-10.738,10.738
				C324.117,317.618,325.812,320.104,327.621,322.365z M366.051,309.933c2.486,0,4.635,2.034,4.635,4.634
				c0,2.486-2.035,4.635-4.635,4.635s-4.635-2.035-4.635-4.635S363.564,309.933,366.051,309.933z M354.07,332.086
				c2.033,2.601,2.938,5.877,2.6,9.155c-0.34,2.487-1.357,4.86-2.939,6.782l-18.198-22.832h12.998L354.07,332.086z M334.063,309.933
				c2.486,0,4.634,2.034,4.634,4.634c0,2.486-2.034,4.635-4.634,4.635c-2.486,0-4.634-2.035-4.634-4.635
				S331.577,309.933,334.063,309.933z"/>
		</g>
		<g>
			<path id="L1_13_3_" fill="#B7C9AF" d="M327.621,15.248c0.113,0.113,24.077,30.292,24.077,30.292
				c0.789,1.017,2.146,1.13,3.162,0.339c3.506-2.826,5.766-6.782,6.217-11.303c0.453-4.521-0.791-8.93-3.617-12.434l-3.277-4.182
				h10.965c5.877,0,10.736-4.747,10.736-10.738s-4.746-10.738-10.736-10.738h-30.292c-5.878,0-10.738,4.86-10.738,10.738
				C324.117,10.5,325.812,12.987,327.621,15.248z M366.051,2.814c2.486,0,4.635,2.034,4.635,4.634c0,2.486-2.035,4.634-4.635,4.634
				s-4.635-2.035-4.635-4.634C361.416,4.849,363.564,2.814,366.051,2.814z M354.07,24.968c2.033,2.6,2.938,5.878,2.6,9.155
				c-0.34,2.487-1.357,4.86-2.939,6.782l-18.198-22.832h12.998L354.07,24.968z M334.063,2.814c2.486,0,4.634,2.034,4.634,4.634
				c0,2.486-2.034,4.634-4.634,4.634c-2.486,0-4.634-2.035-4.634-4.634C329.429,4.849,331.577,2.814,334.063,2.814z"/>
		</g>
		<g>
			<path id="L1_13_2_" fill="#B7C9AF" d="M20.502,322.365c0.113,0.113,24.075,30.292,24.075,30.292
				c0.791,1.018,2.147,1.13,3.165,0.34c3.504-2.826,5.765-6.782,6.216-11.303c0.453-4.522-0.791-8.931-3.616-12.435l-3.278-4.182
				h10.964c5.877,0,10.738-4.747,10.738-10.737c0-5.991-4.747-10.738-10.738-10.738H27.736c-5.877,0-10.738,4.86-10.738,10.738
				C16.999,317.618,18.694,320.104,20.502,322.365z M58.932,309.933c2.487,0,4.634,2.034,4.634,4.634
				c0,2.486-2.035,4.635-4.634,4.635s-4.634-2.035-4.634-4.635S56.445,309.933,58.932,309.933z M46.951,332.086
				c2.034,2.601,2.939,5.877,2.6,9.155c-0.339,2.487-1.356,4.86-2.939,6.782l-18.197-22.832h12.998L46.951,332.086z M26.945,309.933
				c2.487,0,4.634,2.034,4.634,4.634c0,2.486-2.034,4.635-4.634,4.635c-2.486,0-4.634-2.035-4.634-4.635
				S24.458,309.933,26.945,309.933z"/>
		</g>
		<g>
			<path id="L1_13_1_" fill="#B7C9AF" d="M20.502,15.248c0.113,0.113,24.075,30.292,24.075,30.292
				c0.791,1.017,2.147,1.13,3.165,0.339c3.504-2.826,5.765-6.782,6.216-11.303c0.453-4.521-0.791-8.93-3.616-12.434l-3.278-4.182
				h10.964c5.877,0,10.738-4.747,10.738-10.738S64.019-3.515,58.028-3.515H27.736c-5.877,0-10.738,4.86-10.738,10.738
				C16.999,10.5,18.694,12.987,20.502,15.248z M58.932,2.814c2.487,0,4.634,2.034,4.634,4.634c0,2.486-2.035,4.634-4.634,4.634
				s-4.634-2.035-4.634-4.634C54.298,4.849,56.445,2.814,58.932,2.814z M46.951,24.968c2.034,2.6,2.939,5.878,2.6,9.155
				c-0.339,2.487-1.356,4.86-2.939,6.782L28.415,18.073h12.998L46.951,24.968z M26.945,2.814c2.487,0,4.634,2.034,4.634,4.634
				c0,2.486-2.034,4.634-4.634,4.634c-2.486,0-4.634-2.035-4.634-4.634C22.311,4.849,24.458,2.814,26.945,2.814z"/>
		</g>
	</g>
</g>
</svg>
