<?xml version="1.0" encoding="utf-8"?>
<!-- Generator: Adobe Illustrator 16.0.4, SVG Export Plug-In . SVG Version: 6.00 Build 0)  -->
<!DOCTYPE svg PUBLIC "-//W3C//DTD SVG 1.1//EN" "http://www.w3.org/Graphics/SVG/1.1/DTD/svg11.dtd">
<svg version="1.1" id="Layer_1" xmlns="http://www.w3.org/2000/svg" xmlns:xlink="http://www.w3.org/1999/xlink" x="0px" y="0px"
	 width="360px" height="360px" viewBox="0 0 360 360" enable-background="new 0 0 360 360" xml:space="preserve">
<g>
	<rect x="25.768" y="38.325" fill="#FFFFFF" width="308.464" height="283.35"/>
	<g>
		
			<rect x="242.374" y="205.943" transform="matrix(0.7071 -0.7071 0.7071 0.7071 -107.0793 252.0311)" fill="#424143" width="16.593" height="98.641"/>
		<path fill="#FCEE23" d="M226.223,209.958c5.762,5.762,5.762,15.102,0,20.857c-5.758,5.76-15.098,5.76-20.855,0
			c-5.762-5.756-5.762-15.096,0-20.857C211.125,204.202,220.465,204.202,226.223,209.958z"/>
		<path fill="#EF4823" d="M125.383,162.562c0,0-13.812,29.369,9.674,56.084c0,0,23.006,24.778,51.923,8.141
			c0,0-32.962-4.081-38.851-29.585c0,0,12.829,11.133,27.102,6.991c0,0,2.731-22.854-16.761-51.472c0,0,25.639,1.035,41.049,31.351
			c0,0,16.312-16.354,11.457-29.688c0,0,21.721,21.881,1.262,42.411c0,0,38.773-7.598,26.92-52.364c0,0-11.043-33.803-44.043-34.397
			c0,0,18.908,17.551-4.486,39.659c0,0,6.166-57.392-94.939-44.914c0,0,46.019,12.18,50.621,56.056l3.099,20.494
			C149.41,181.328,135.257,186.669,125.383,162.562z"/>
	</g>
</g>
</svg>
