<?xml version="1.0" encoding="utf-8"?>
<!-- Generator: Adobe Illustrator 16.0.4, SVG Export Plug-In . SVG Version: 6.00 Build 0)  -->
<!DOCTYPE svg PUBLIC "-//W3C//DTD SVG 1.1//EN" "http://www.w3.org/Graphics/SVG/1.1/DTD/svg11.dtd">
<svg version="1.1" id="Layer_1" xmlns="http://www.w3.org/2000/svg" xmlns:xlink="http://www.w3.org/1999/xlink" x="0px" y="0px"
	 width="360px" height="360px" viewBox="0 0 360 360" enable-background="new 0 0 360 360" xml:space="preserve">
<g>
	<rect x="25.767" y="38.325" fill="#FFFFFF" width="308.465" height="283.35"/>
	<g>
		<path fill="#8B5F3D" d="M307.604,263.013l8.902-12.832l-7.549-9.221c-5.555,1.121-11.973-3.133-11.973-3.133
			c-26.174-32.913-55.262-41.302-55.262-41.302c-10.799-3.467-14.238-9.871-14.238-9.871c-2.566-6.925-7.719-7.981-7.719-7.981
			l2.719-3.905c1.025-1.48,0.656-3.52-0.828-4.558l-2.492-1.727c-1.486-1.032-3.525-0.658-4.557,0.829l-4.041,5.835l-17.643,25.409
			l-4.07,5.871c-1.033,1.49-0.664,3.527,0.816,4.559l2.488,1.734c1.488,1.021,3.525,0.656,4.557-0.83l2.479-3.559l3.932,2.332
			l0.971,0.576c4.496-1.965,9.859-1.617,14.18,1.379c3.721,2.578,5.865,6.578,6.229,10.753l2.678,1.59
			c3.715-1.164,7.9-0.68,11.354,1.725c2.906,2.008,4.74,5,5.371,8.223l6.188,3.689c2.734-0.516,5.652,0.023,8.117,1.73
			c2.012,1.395,3.387,3.361,4.084,5.52l6.27,3.723c1.662-0.125,3.387,0.285,4.861,1.316c1.164,0.805,2.014,1.881,2.555,3.096
			l5.758,3.422c6.789,3.721,5.396,10.791,5.396,10.791c0.156,2.836,1.795,3.631,1.795,3.631l10.119,3.506L307.604,263.013z"/>
		<path fill="#424143" d="M152.743,135.567c0,0-25.392-19.69-49.836-28.684c0,0-21.041-7.019-43.774-24.788c0,0,0,0.021-0.006,0.066
			c-0.072,0.811-0.61,9.38,6.973,22.722l128.627,86.761l12.623-18.181L152.743,135.567z"/>
		<path fill="#999A9E" d="M103.755,144.139l72.624,50.402c0,0,2.289-2.535,6.246-0.58l7.084,4.912l5.018-7.229L66.099,104.884
			C72.113,115.461,83.225,129.037,103.755,144.139z"/>
	</g>
</g>
</svg>
