<?xml version="1.0" encoding="utf-8"?>
<!-- Generator: Adobe Illustrator 16.0.4, SVG Export Plug-In . SVG Version: 6.00 Build 0)  -->
<!DOCTYPE svg PUBLIC "-//W3C//DTD SVG 1.1//EN" "http://www.w3.org/Graphics/SVG/1.1/DTD/svg11.dtd">
<svg version="1.1" id="Layer_1" xmlns="http://www.w3.org/2000/svg" xmlns:xlink="http://www.w3.org/1999/xlink" x="0px" y="0px"
	 width="360px" height="360px" viewBox="0 0 360 360" enable-background="new 0 0 360 360" xml:space="preserve">
<g>
	<rect x="25.77" y="38.326" fill="#FFFFFF" width="308.461" height="283.348"/>
	<g>
		<rect x="132.804" y="239.413" fill="#8B5F3D" width="37.08" height="61.228"/>
		<rect x="212.668" y="239.971" fill="#8B5F3D" width="26.729" height="44.132"/>
		<path fill="#305A2B" d="M226.031,108.187l-40.402,39.164l16.783,8.08l-31.703,35.433l27.661,10.562l-33.257,32.95
			c0,0,10.565,15.536,60.918,15.536"/>
		<path fill="#284E25" d="M226.031,108.187l40.409,39.164l-16.783,8.08l31.702,35.433l-27.663,10.562l33.256,32.95
			c0,0-10.568,15.536-60.921,15.536"/>
		<path fill="#305A2B" d="M151.345,57.457l-56.052,54.328l23.279,11.212l-43.979,49.154l38.378,14.657l-46.137,45.704
			c0,0,14.658,21.562,84.511,21.562"/>
		<path fill="#284E25" d="M151.345,57.457l56.053,54.328l-23.283,11.212l43.98,49.154l-38.375,14.657l46.137,45.704
			c0,0-14.662,21.562-84.512,21.562"/>
	</g>
</g>
</svg>
