<?xml version="1.0" encoding="utf-8"?>
<!-- Generator: Adobe Illustrator 16.0.4, SVG Export Plug-In . SVG Version: 6.00 Build 0)  -->
<!DOCTYPE svg PUBLIC "-//W3C//DTD SVG 1.1//EN" "http://www.w3.org/Graphics/SVG/1.1/DTD/svg11.dtd">
<svg version="1.1" id="Layer_1" xmlns="http://www.w3.org/2000/svg" xmlns:xlink="http://www.w3.org/1999/xlink" x="0px" y="0px"
	 width="360px" height="360px" viewBox="0 0 360 360" enable-background="new 0 0 360 360" xml:space="preserve">
<g>
	<rect x="25.768" y="38.326" fill="#FFFFFF" width="308.464" height="283.348"/>
	<g>
		<path fill="#7E6447" d="M244.434,179.169h-58.295v17.308h-12.272v-17.308h-58.291c0,0-19.941,54.798,0,87.662
			c0,0,8.771,17.53,29.804,17.53h34.625h34.626c21.033,0,29.803-17.53,29.803-17.53
			C264.594,229.363,244.434,179.169,244.434,179.169z"/>
		<g>
			<path fill="#78B7C3" d="M97.127,244.465l-12.398-99.272c-6.791-39.358,23.511-54.536,23.813-54.688
				c25.112-12.602,43.392,2.641,49.539,12.462l-8.906,5.603c-1.319-2.076-13.56-19.889-35.978-8.63
				c-1.002,0.491-23.517,12.098-18.07,43.706l12.436,99.515L97.127,244.465z"/>
		</g>
		<g>
			<path fill="#78B7C3" d="M262.877,244.465l12.396-99.272c6.791-39.358-23.512-54.536-23.814-54.688
				c-25.109-12.602-43.391,2.641-49.537,12.462l8.906,5.603c1.316-2.076,13.561-19.889,35.979-8.63
				c1.002,0.491,23.514,12.098,18.066,43.706l-12.436,99.515L262.877,244.465z"/>
		</g>
		<g>
			<path fill="#78B7C3" d="M166.329,103.483c0.674-6.985,6.513-12.489,13.676-12.489c7.16,0,12.996,5.504,13.673,12.489h5.258
				c-0.688-9.892-8.871-17.748-18.931-17.748c-10.059,0-18.245,7.856-18.931,17.748H166.329z"/>
		</g>
		<path fill="#7E6447" d="M115.576,136.054v35.226h128.858v-43.825c0-2.267-0.377-4.424-0.914-6.518
			C186.908,106.945,135.57,126.632,115.576,136.054z"/>
		<path fill="#886C4E" d="M243.52,120.937c-2.916-11.354-13.123-19.777-25.383-19.777h-76.264
			c-14.525,0-26.297,11.775-26.297,26.295v8.6C135.57,126.632,186.908,106.945,243.52,120.937z"/>
		<path fill="#70593F" d="M115.576,179.169c0,0-56.979,63.123,0,87.662C95.634,233.967,115.576,179.169,115.576,179.169z"/>
		<path fill="#70593F" d="M244.434,179.169c0,0,20.16,50.194,0,87.662C301.412,242.292,244.434,179.169,244.434,179.169z"/>
	</g>
</g>
</svg>
