<?xml version="1.0" encoding="utf-8"?>
<!-- Generator: Adobe Illustrator 16.0.4, SVG Export Plug-In . SVG Version: 6.00 Build 0)  -->
<!DOCTYPE svg PUBLIC "-//W3C//DTD SVG 1.1//EN" "http://www.w3.org/Graphics/SVG/1.1/DTD/svg11.dtd">
<svg version="1.1" id="Layer_1" xmlns="http://www.w3.org/2000/svg" xmlns:xlink="http://www.w3.org/1999/xlink" x="0px" y="0px"
	 width="360px" height="360px" viewBox="0 0 360 360" enable-background="new 0 0 360 360" xml:space="preserve">
<g>
	<polygon fill="#FFFFFF" points="25.768,38.326 25.768,321.674 232.443,321.674 334.232,321.674 334.232,188.578 334.232,38.326 	
		"/>
	<g>
		<g>
			<path fill="#78B7C3" d="M112.727,144.164c4.294,5.744,12.511,7.935,19.96,9.919c4.251,1.141,8.272,2.212,10.927,3.781
				c0.042,0.024,0.094,0.052,0.14,0.077c2.142,1.071,4.314,2.118,6.494,3.167c10.577,5.095,21.51,10.359,28.91,19.187
				c0.856,1.017,2.368,1.153,3.387,0.297c1.014-0.846,1.092-2.361,0.297-3.386c-8.068-9.622-19.474-15.117-30.507-20.424
				c-2.133-1.026-4.261-2.055-6.354-3.101c-3.211-1.872-7.508-3.028-12.059-4.232c-8.63-2.309-17.557-4.689-19.068-11.971
				c-0.628-4.403,2.789-9.161,6.402-14.189c3.217-4.473,6.545-9.094,7.58-14.307c0.977-4.916,0.052-10.396-0.844-15.696
				c-1.159-6.934-2.264-13.467,0.489-18.549c3.25-5.795,13.603-10.914,19.838-8.265c7.259,4.615,13.943,12.792,20.438,24.979
				c1.031,2.169,2.032,4.53,3,6.809c3.754,8.842,7.635,17.981,16.965,23.72c5.174,3.741,11.318,5.431,17.266,7.066
				c4.678,1.29,9.521,2.616,13.818,4.943c16.691,8.669,22.242,21.705,28.668,36.804c2.059,4.831,4.186,9.837,6.783,14.932
				c0.609,1.168,2.047,1.647,3.23,1.047c1.188-0.602,1.656-2.052,1.051-3.232c-2.521-4.948-4.615-9.87-6.641-14.631
				c-6.512-15.285-12.656-29.721-30.84-39.162c-4.746-2.576-9.863-3.978-14.799-5.337c-5.818-1.596-11.311-3.102-15.789-6.373
				c-0.047-0.037-0.111-0.073-0.162-0.109c-8.072-4.928-11.499-13-15.124-21.544c-0.989-2.327-2.016-4.736-3.144-7.094
				c-6.985-13.129-14.269-21.926-22.312-26.984c-0.094-0.058-0.197-0.115-0.294-0.164c-8.788-3.935-21.727,2.364-26.162,10.281
				c-3.56,6.569-2.264,14.237-1.014,21.659c0.858,5.101,1.669,9.919,0.862,13.973c-0.832,4.188-3.848,8.378-6.761,12.429
				c-4.018,5.586-8.169,11.352-7.233,17.83C110.6,140.604,111.504,142.526,112.727,144.164z"/>
		</g>
		<path fill="#7C5534" d="M126.652,62.385c4.967-1.381,7.798-3.833,12.021-6.664c4.225-2.819,11.416-1.202,15.052,2.75
			c5.977,3.531,4.732,16.13-1.84,18.042c-4.169,1.117-9.023-0.919-12.811,1.587c-3.799,2.5-3.805,7.844-6.057,11.521
			c-5.247,8.593-18.312,1.365-20.439-6.385C109.55,72.501,117.463,65.252,126.652,62.385z"/>
		<path fill="#8B5F3D" d="M180.299,171.018c3.933,0.567,6.664,4.224,6.093,8.156c-1.469,10.15,1.707,25.685,11.828,32.83
			c6.891,4.859,14.334,7.428,16.762,8.182c2.561-0.039,10.422-0.4,18.4-3.109c11.725-3.99,19.164-17.988,20.627-28.143
			c0.57-3.936,4.219-6.664,8.16-6.097c3.928,0.564,6.66,4.218,6.096,8.147c-2.273,15.729-13.553,34.17-30.666,39.859
			c-6.549,2.178-12.885,3.098-17.381,3.48l-14.252-2.059c-4.205-1.639-10.023-4.309-15.686-8.25
			c-14.807-10.299-20.415-31.178-18.138-46.896C172.704,173.181,176.358,170.451,180.299,171.018z"/>
		<g>
			<g>
				<path fill="#FFD668" d="M248.154,200.43c-0.266,0.848,0.193,1.748,1.037,2.018l14.795,4.682c0.844,0.273,1.744-0.193,2.01-1.037
					c0.273-0.844-0.195-1.748-1.041-2.008l-14.793-4.691C249.318,199.127,248.42,199.592,248.154,200.43z"/>
			</g>
			<g>
				<path fill="#FFD668" d="M249.922,194.854c-0.264,0.844,0.197,1.744,1.047,2.012l14.787,4.684
					c0.846,0.271,1.744-0.199,2.006-1.039c0.273-0.844-0.195-1.742-1.035-2.016l-14.793-4.682
					C251.092,193.541,250.189,194.01,249.922,194.854z"/>
			</g>
			<g>
				<path fill="#FFD668" d="M251.691,189.27c-0.268,0.844,0.195,1.742,1.041,2.012l14.793,4.688
					c0.846,0.268,1.744-0.193,2.012-1.041c0.27-0.842-0.197-1.744-1.047-2.014l-14.789-4.688
					C252.855,187.959,251.959,188.426,251.691,189.27z"/>
			</g>
		</g>
		<g>
			<g>
				<path fill="#FFD668" d="M169.77,192.82c0.03,0.885,0.768,1.58,1.653,1.553l15.514-0.51c0.877-0.023,1.572-0.768,1.545-1.65
					c-0.027-0.887-0.768-1.574-1.652-1.551l-15.51,0.507C170.434,191.199,169.743,191.937,169.77,192.82z"/>
			</g>
			<g>
				<path fill="#FFD668" d="M169.582,186.967c0.028,0.883,0.771,1.574,1.657,1.547l15.505-0.5c0.887-0.031,1.584-0.771,1.549-1.656
					c-0.031-0.881-0.771-1.572-1.656-1.545l-15.507,0.5C170.244,185.34,169.548,186.086,169.582,186.967z"/>
			</g>
			<g>
				<path fill="#FFD668" d="M169.394,181.113c0.023,0.893,0.765,1.581,1.653,1.554l15.509-0.513c0.879-0.021,1.57-0.759,1.543-1.645
					c-0.027-0.889-0.768-1.582-1.652-1.554l-15.506,0.507C170.055,179.49,169.364,180.233,169.394,181.113z"/>
			</g>
		</g>
		<path fill="#7C5534" d="M210.811,299.525c-0.568,3.939-4.223,6.66-8.154,6.096c-3.938-0.57-6.666-4.221-6.1-8.152l0.84-5.809
			l15.773-8.508L210.811,299.525z"/>
		<polygon fill="#84D2E4" points="215.527,266.814 213.17,283.152 197.396,291.66 199.805,274.984 		"/>
		<polygon fill="#7C5534" points="205.967,232.266 220.219,234.324 215.527,266.814 199.805,274.984 		"/>
	</g>
</g>
</svg>
