<?xml version="1.0" encoding="utf-8"?>
<!-- Generator: Adobe Illustrator 16.0.4, SVG Export Plug-In . SVG Version: 6.00 Build 0)  -->
<!DOCTYPE svg PUBLIC "-//W3C//DTD SVG 1.1//EN" "http://www.w3.org/Graphics/SVG/1.1/DTD/svg11.dtd">
<svg version="1.1" id="Layer_1" xmlns="http://www.w3.org/2000/svg" xmlns:xlink="http://www.w3.org/1999/xlink" x="0px" y="0px"
	 width="360px" height="360px" viewBox="0 0 360 360" enable-background="new 0 0 360 360" xml:space="preserve">
<g>
	<rect x="25.767" y="38.176" fill="#FFFFFF" width="308.465" height="283.349"/>
	<g>
		<path fill="#424143" d="M231.615,321.824l-0.471-0.598l-51.839-82.016c12.501-9.897,7.13-21.335,7.13-21.335l-48.379-66.318
			c-6.421-9.058-11.595-11.637-11.595-11.637l-1.669,1.065l39.256,61.558l-4.108,2.615l-40.441-59.731l-2.279,1.453l37.708,61.476
			l-2.279,1.457l-2.285,1.45l-39.828-60.117l-2.281,1.453l37.097,61.868l-4.105,2.616l-39.255-61.562l-1.669,1.068
			c0,0,0.157,5.777,5.663,15.415l39.719,71.844c0,0,8.107,9.695,22.354,2.533l48.469,75.44H231.615z"/>
		<path fill="#424143" d="M273.994,298.339l13.146,23.485h28.998l-25.24-34.264l-45.086-76.441L172.056,90.103
			c0,0-5.981-10.724-14.132-3.386c0,0-4.86,5.453-3.444,14.383c0,0,2.92,45.815,74.801,133.39
			C229.281,234.489,252.154,263.522,273.994,298.339z"/>
	</g>
</g>
</svg>
